<svg xmlns="http://www.w3.org/2000/svg" width="600" height="372" viewBox="0 0 600 372">
  <rect width="600" height="372" fill="#f3f4f6"/>
  <rect x="144" y="30" width="312" height="312" rx="30" fill="#2e9b6a"/>
  <g stroke="#46b487" stroke-width="3" stroke-linecap="round">
    <line x1="200" y1="250" x2="262" y2="250"/>
    <line x1="200" y1="278" x2="248" y2="278"/>
    <line x1="338" y1="250" x2="400" y2="250"/>
    <line x1="352" y1="278" x2="400" y2="278"/>
    <line x1="300" y1="252" x2="300" y2="300"/>
  </g>
  <g fill="#f3f4f6" stroke="#23895c" stroke-width="3">
    <circle cx="180" cy="66" r="11"/>
    <circle cx="420" cy="66" r="11"/>
    <circle cx="180" cy="306" r="11"/>
    <circle cx="420" cy="306" r="11"/>
  </g>
  <rect x="156" y="120" width="24" height="150" rx="4" fill="#1f2937"/>
  <g fill="#6b7280">
    <circle cx="168" cy="134" r="3"/>
    <circle cx="168" cy="152" r="3"/>
    <circle cx="168" cy="170" r="3"/>
    <circle cx="168" cy="188" r="3"/>
    <circle cx="168" cy="206" r="3"/>
    <circle cx="168" cy="224" r="3"/>
    <circle cx="168" cy="242" r="3"/>
    <circle cx="168" cy="256" r="3"/>
  </g>
  <circle cx="300" cy="180" r="56" fill="none" stroke="#ffffff" stroke-width="7" stroke-opacity="0.9"/>
  <g fill="#1f2937">
    <circle cx="288" cy="168" r="3.5"/>
    <circle cx="300" cy="168" r="3.5"/>
    <circle cx="312" cy="168" r="3.5"/>
    <circle cx="288" cy="180" r="3.5"/>
    <circle cx="300" cy="180" r="3.5"/>
    <circle cx="312" cy="180" r="3.5"/>
    <circle cx="288" cy="192" r="3.5"/>
    <circle cx="300" cy="192" r="3.5"/>
    <circle cx="312" cy="192" r="3.5"/>
  </g>
  <rect x="196" y="16" width="40" height="36" rx="6" fill="#ffffff"/>
  <rect x="246" y="12" width="56" height="44" rx="4" fill="#1f2937"/>
  <rect x="256" y="20" width="36" height="28" rx="3" fill="#4b5563"/>
  <rect x="312" y="18" width="46" height="32" rx="5" fill="#d1d5db"/>
  <rect x="326" y="22" width="14" height="24" rx="3" fill="#6b7280"/>
  <rect x="366" y="16" width="40" height="36" rx="6" fill="#ffffff"/>
  <rect x="420" y="120" width="44" height="72" rx="6" fill="#ffffff"/>
  <rect x="426" y="128" width="20" height="56" rx="3" fill="#cdd3da"/>
  <rect x="420" y="204" width="44" height="72" rx="6" fill="#ffffff"/>
  <rect x="426" y="212" width="20" height="56" rx="3" fill="#cdd3da"/>
  <rect x="388" y="290" width="28" height="28" rx="5" fill="#1f2937"/>
  <circle cx="402" cy="304" r="6" fill="#6b7280"/>
  <rect x="424" y="288" width="40" height="32" rx="10" fill="#b9c0c9"/>
  <g fill="#ffffff">
    <rect x="168" y="322" width="52" height="46" rx="6"/>
    <rect x="238" y="322" width="52" height="46" rx="6"/>
    <rect x="308" y="322" width="52" height="46" rx="6"/>
    <rect x="378" y="322" width="52" height="46" rx="6"/>
  </g>
  <g fill="#cdd3da">
    <rect x="176" y="330" width="36" height="22" rx="3"/>
    <rect x="246" y="330" width="36" height="22" rx="3"/>
    <rect x="316" y="330" width="36" height="22" rx="3"/>
    <rect x="386" y="330" width="36" height="22" rx="3"/>
  </g>
</svg>
